<svg xmlns="http://www.w3.org/2000/svg" viewBox="0 0 800 600" width="800" height="600">
  <rect width="100%" height="100%" fill="#16044d"/>
  <circle cx="50" cy="50" r="1" fill="yellow"/>
  <circle cx="200" cy="100" r="1" fill="yellow"/>
  <circle cx="400" cy="200" r="2" fill="yellow"/>
  <circle cx="600" cy="300" r="1" fill="yellow"/>
  <circle cx="800" cy="400" r="1" fill="yellow"/>
  <circle cx="100" cy="500" r="2" fill="yellow"/>
  <circle cx="300" cy="350" r="2" fill="yellow"/>
  <circle cx="500" cy="250" r="3" fill="yellow"/>
  <circle cx="700" cy="150" r="1" fill="yellow"/>
  <circle cx="120" cy="80" r="2" fill="yellow"/>
  <circle cx="620" cy="470" r="2" fill="yellow"/>
  <circle cx="180" cy="450" r="1" fill="yellow"/>
  <circle cx="390" cy="60" r="3" fill="yellow"/>
  <circle cx="720" cy="390" r="2" fill="yellow"/>
  <circle cx="480" cy="480" r="1" fill="yellow"/>
  <circle cx="270" cy="180" r="2" fill="yellow"/>
  <circle cx="550" cy="410" r="1" fill="yellow"/>
  <circle cx="750" cy="320" r="3" fill="yellow"/>
  <circle cx="100" cy="300" r="2" fill="yellow"/>
  <circle cx="300" cy="500" r="1" fill="yellow"/>
</svg>
