<svg width="32" height="32" xmlns="http://www.w3.org/2000/svg">
  <rect x="0" y="0" width="8" height="8" fill="#8BC34A"/>
  <rect x="8" y="0" width="8" height="8" fill="#7CB342"/>
  <rect x="16" y="0" width="8" height="8" fill="#8BC34A"/>
  <rect x="24" y="0" width="8" height="8" fill="#689F38"/>
  <rect x="0" y="8" width="8" height="8" fill="#689F38"/>
  <rect x="8" y="8" width="8" height="8" fill="#9CCC65"/>
  <rect x="16" y="8" width="8" height="8" fill="#689F38"/>
  <rect x="24" y="8" width="8" height="8" fill="#7CB342"/>
  <rect x="0" y="16" width="8" height="8" fill="#7CB342"/>
  <rect x="8" y="16" width="8" height="8" fill="#8BC34A"/>
  <rect x="16" y="16" width="8" height="8" fill="#9CCC65"/>
  <rect x="24" y="16" width="8" height="8" fill="#8BC34A"/>
  <rect x="0" y="24" width="8" height="8" fill="#AED581"/>
  <rect x="8" y="24" width="8" height="8" fill="#8BC34A"/>
  <rect x="16" y="24" width="8" height="8" fill="#9CCC65"/>
  <rect x="24" y="24" width="8" height="8" fill="#7CB342"/>
</svg>
