<?xml version="1.0" encoding="UTF-8" standalone="no"?>
<svg xmlns="http://www.w3.org/2000/svg" viewBox="0 0 64 128" width="64" height="128">
  <g transform="scale(1.8)">
    <!-- Tree Trunk -->
    <rect x="12" y="10" width="10" height="50" fill="#A65A00"/>
    <path d="M12 12 Q16 16, 22 12" stroke="#8C4B00" stroke-width="0.7" fill="none"/>
    <path d="M12 22 Q16 26, 22 22" stroke="#8C4B00" stroke-width="0.7" fill="none"/>
    <path d="M12 32 Q16 36, 22 32" stroke="#8C4B00" stroke-width="0.7" fill="none"/>
    <path d="M12 42 Q16 46, 22 42" stroke="#8C4B00" stroke-width="0.7" fill="none"/>
    <path d="M11 57 Q16 61, 23 57" stroke="#8C4B00" stroke-width="5" fill="none"/>
    <!-- Leaves -->
    <g transform="scale(0.176)">
      <circle cx="64" cy="106" r="35" fill="#38A600"/>
      <circle cx="163" cy="55" r="35" fill="#38A600"/>
      <circle cx="113" cy="98" r="35" fill="#38A600"/>
      <circle cx="78" cy="49" r="35" fill="#2C8400"/>
      <circle cx="128" cy="49" r="35" fill="#2C8400"/>
      <circle cx="98" cy="65" r="35" fill="#43C800"/>
      <circle cx="36" cy="81" r="35" fill="#43C800"/>
      <circle cx="148" cy="81" r="35" fill="#43C800"/>
    </g>
  </g>
</svg>
