<svg xmlns="http://www.w3.org/2000/svg" viewBox="0 0 800 600" width="800" height="600">
  <g fill="none" stroke="#9E3129" stroke-linecap="round" stroke-linejoin="round">
    <path
      d="M400 600c88-160 176-160 264-240 44-40 44-80 88-120 0-40-88-80-88-120-44 0-88 80-176 80-88 0-132-80-176-80-44 0-88 40-88 80 44 40 44 80 88 120 88 80 176 80 264 240z"
      fill="#f60"/>
    <path d="M400 240c22 0 44 20 44 40 0 22-22 40-44 40-22 0-44-18-44-40 0-22 20-40 44-40z"/>
    <path d="M352 280c0 22 20 40 48 40 28 0 48-18 48-40 0-22-20-40-48-40-28 0-48 18-48 40z" fill="#f60"/>
    <path d="M176 480c-44 40-88 80-88 120 0 40 44 80 88 80 44 0 88-40 88-80 0-40-44-80-88-120z" fill="#f60"/>
    <path d="M632 480c-44 40-88 80-88 120 0 40 44 80 88 80 44 0 88-40 88-80 0-40-44-80-88-120z" fill="#f60"/>
    <path d="M264 600c88-160 176-160 264-240M136 600c44-80 132-80 176-160M664 600c-44-80-132-80-176-160"/>
  </g>
</svg>
