<svg width="32" height="32" xmlns="http://www.w3.org/2000/svg">
  <rect x="0" y="0" width="32" height="32" fill="#844204"/>
  <rect x="0" y="8" width="4" height="4" fill="saddlebrown"/>
  <rect x="0" y="24" width="4" height="4" fill="saddlebrown"/>
  <rect x="4" y="0" width="4" height="4" fill="sienna"/>
  <rect x="4" y="16" width="4" height="4" fill="sienna"/>
  <rect x="12" y="28" width="4" height="4" fill="sienna"/>
  <rect x="12" y="0" width="4" height="4" fill="saddlebrown"/>
  <rect x="8" y="8" width="4" height="4" fill="sienna"/>
  <rect x="12" y="20" width="4" height="4" fill="saddlebrown"/>
  <rect x="20" y="4" width="4" height="4" fill="saddlebrown"/>
  <rect x="20" y="12" width="4" height="4" fill="sienna"/>
  <rect x="20" y="24" width="4" height="4" fill="saddlebrown"/>
  <rect x="24" y="0" width="4" height="4" fill="sienna"/>
  <rect x="28" y="28" width="4" height="4" fill="sienna"/>
  <rect x="28" y="8" width="4" height="4" fill="sienna"/>
  <rect x="28" y="20" width="4" height="4" fill="saddlebrown"/>
</svg>
