<svg width="32" height="32" xmlns="http://www.w3.org/2000/svg">
  <rect x="0" y="0" width="32" height="32" fill="#8BC34A"/>
  <path fill="#7CB342" d="M8,10q1,-8 3,-9q2,1 3,9"/>
  <path fill="#689F38" d="M0,10q1,-8 3,-9q2,1 3,9"/>
  <path fill="#9CCC65" d="M24,10q1,-8 3,-9q2,1 3,9"/>
  <path fill="#669922" d="M16,10q1,-8 3,-9q2,1 3,9"/>
  <path fill="#9CCC65" d="M10,14q1,-8 3,-9q2,1 3,9"/>
  <path fill="#689F38" d="M15,16q1,-8 3,-9q2,1 3,9"/>
  <path fill="#689F38" d="M26,16q1,-8 3,-9q2,1 3,9"/>
  <path fill="#689F38" d="M4,16q1,-8 3,-9q2,1 3,9"/>
  <path fill="#9CCC65" d="M2,22q1,-8 3,-9q2,1 3,9"/>
  <path fill="#9CCC65" d="M18,24q1,-8 3,-9q2,1 3,9"/>
  <path fill="#7CB342" d="M12,24q1,-8 3,-9q2,1 3,9"/>
  <path fill="#7CB342" d="M24,26q1,-8 3,-9q2,1 3,9"/>
  <path fill="#669922" d="M26,32q1,-8 3,-9q2,1 3,9"/>
  <path fill="#7CB342" d="M16,32q1,-8 3,-9q2,1 3,9"/>
  <path fill="#669922" d="M8,26q1,-8 3,-9q2,1 3,9"/>
  <path fill="#669922" d="M0,32q1,-8 3,-9q2,1 3,9"/>
  <path fill="#9CCC65" d="M8,32q1,-8 3,-9q2,1 3,9"/>
</svg>

